<svg width="55" height="55" viewBox="0 0 55 55" fill="none" xmlns="http://www.w3.org/2000/svg">
<mask id="mask0_3713_2015" style="mask-type:alpha" maskUnits="userSpaceOnUse" x="0" y="0" width="55" height="55">
<circle cx="27.5" cy="27.5" r="27.5" fill="white"/>
</mask>
<g mask="url(#mask0_3713_2015)">
<circle cx="27.5" cy="27.5" r="27.5" fill="white"/>
<path d="M56.8389 29.3388L43.465 17.2188L38.7842 28.6701L53.579 39.9543L56.8389 29.3388Z" fill="url(#paint0_linear_3713_2015)"/>
<path d="M36.7782 53.4953L14.377 36.5272L15.38 28.0014L20.3116 25.0758L27.5836 19.9771L55.418 41.4588L54.8329 42.7962L54.1642 44.8023L50.6535 51.6564L36.7782 53.4953Z" fill="url(#paint1_linear_3713_2015)"/>
<path d="M27.5001 24.4822C28.2357 24.7497 29.6455 24.928 30.2585 24.9838C33.0168 25.2345 35.9423 24.4822 38.7007 23.0613C41.4591 21.6404 42.88 18.2133 43.2144 17.5446C43.5487 16.8759 43.7995 17.3774 43.7995 17.7954C43.7995 18.2133 43.3816 23.3957 41.1247 26.8227C39.3192 29.5643 36.6946 30.3612 35.608 30.4169C34.6328 30.5005 32.1977 30.4838 30.2585 29.7482C27.8344 28.8288 26.6642 26.4883 26.4135 25.8196C26.1627 25.1509 26.5806 24.1479 27.5001 24.4822Z" fill="url(#paint2_linear_3713_2015)" stroke="url(#paint3_linear_3713_2015)" stroke-width="0.5"/>
<path d="M34.1867 25.569C30.3083 26.2377 27.6669 25.179 26.8311 24.566C26.8589 24.5103 26.9982 24.3988 27.3326 24.3988C27.5332 24.5325 28.1963 24.6774 28.5028 24.7332C30.7763 25.2012 32.7936 24.9839 33.518 24.8167C34.2424 24.7332 36.2931 24.2651 38.7004 23.0614C41.1077 21.8578 42.824 18.7149 43.3812 17.2939C43.1583 17.9905 42.5955 19.6009 42.1274 20.4702C41.5423 21.5569 39.0347 24.7332 34.1867 25.569Z" fill="#A0C586" stroke="url(#paint4_linear_3713_2015)" stroke-width="0.5"/>
<path d="M16.0492 36.2683C13.7756 37.8063 13.5416 35.6275 13.7087 34.3458C14.2103 30.8351 15.2969 23.5129 15.6313 22.3093C16.0492 20.8047 17.1358 20.9719 17.9717 21.1391C18.8076 21.3063 18.9747 22.6436 19.0583 23.3123C19.1419 23.981 20.8137 24.1482 21.6495 23.3123C22.4854 22.4765 23.8228 20.0525 25.996 19.6346C27.7346 19.3002 27.8907 19.6624 27.7513 19.8853C26.2133 21.2896 25.3273 25.4299 25.0766 27.3245C24.6308 29.2749 24.4079 33.4096 27.0826 34.3458C29.7574 35.282 31.2063 34.7359 31.5963 34.3458C32.0978 33.8443 33.3182 33.1421 34.1875 34.3458C35.5285 36.2025 32.0314 37.7376 29.7465 37.8954C28.2572 37.9983 26.5131 37.8627 24.8258 37.1877C21.4823 35.8504 21.0365 32.0611 21.2316 30.3336C21.3988 29.247 21.3152 27.0738 19.6434 27.0738C17.5538 27.0738 17.3866 31.9218 17.1358 33.6771C16.9352 35.0814 16.3278 35.9897 16.0492 36.2683Z" fill="url(#paint5_linear_3713_2015)"/>
</g>
<defs>
<linearGradient id="paint0_linear_3713_2015" x1="28.8374" y1="16.0485" x2="56.1734" y2="23.7846" gradientUnits="userSpaceOnUse">
<stop stop-color="#DDDEE7"/>
<stop offset="1" stop-color="#DDDBE2" stop-opacity="0"/>
</linearGradient>
<linearGradient id="paint1_linear_3713_2015" x1="21.8162" y1="24.3236" x2="46.0563" y2="47.6442" gradientUnits="userSpaceOnUse">
<stop stop-color="#DDDEE7"/>
<stop offset="1" stop-color="#DDDBE2" stop-opacity="0"/>
</linearGradient>
<linearGradient id="paint2_linear_3713_2015" x1="43.1308" y1="22.8106" x2="27.5001" y2="27.7422" gradientUnits="userSpaceOnUse">
<stop stop-color="#3C5033"/>
<stop offset="1" stop-color="#789955"/>
</linearGradient>
<linearGradient id="paint3_linear_3713_2015" x1="35.0706" y1="17.2188" x2="35.0706" y2="30.4512" gradientUnits="userSpaceOnUse">
<stop stop-color="#364135"/>
<stop offset="1" stop-color="#677D65"/>
</linearGradient>
<linearGradient id="paint4_linear_3713_2015" x1="35.1061" y1="17.2939" x2="35.1061" y2="25.7828" gradientUnits="userSpaceOnUse">
<stop stop-color="#364135"/>
<stop offset="1" stop-color="#677D65"/>
</linearGradient>
<linearGradient id="paint5_linear_3713_2015" x1="33.686" y1="35.3488" x2="15.7149" y2="22.3929" gradientUnits="userSpaceOnUse">
<stop stop-color="#DF6638"/>
<stop offset="1" stop-color="#FF9348"/>
</linearGradient>
</defs>
</svg>
